<?xml version="1.0" encoding="UTF-8" standalone="no"?><!DOCTYPE svg PUBLIC "-//W3C//DTD SVG 1.1//EN" "http://www.w3.org/Graphics/SVG/1.1/DTD/svg11.dtd"><svg width="100%" height="100%" viewBox="0 0 1120 140" version="1.1" xmlns="http://www.w3.org/2000/svg" xmlns:xlink="http://www.w3.org/1999/xlink" xml:space="preserve" style="fill-rule:evenodd;clip-rule:evenodd;stroke-linejoin:round;stroke-miterlimit:1.41421;"><g id="Logo"><path id="T" d="M1039.81,140c0,0 -26.659,-11.699 -26.659,-115.913l-53.318,-0.731c0,0 12.633,-23.329 79.977,-23.329c67.345,0 79.978,24.06 79.978,24.06l-53.319,0c0,105.235 -26.659,115.913 -26.659,115.913Z" style="fill:#626262;"/><path id="Z" d="M799.875,140l-159.955,-23.329l93.307,-81.651l-93.307,-35.02l159.955,23.356l-79.977,81.651l79.977,34.993Z" style="fill:#626262;"/><path id="I" d="M639.92,116.644l-53.318,0l0,-93.315l53.318,0c0,0 -26.947,-23.329 -79.977,-23.329c-53.03,0 -79.978,23.329 -79.978,23.329l53.319,0l0,93.315l-53.319,0c0,0 26.236,23.329 79.978,23.329c53.742,0 79.977,-23.329 79.977,-23.329Z" style="fill:#626262;"/><path id="I1" d="M959.83,116.671l-53.318,0l0,-93.315l53.318,0c0,0 -26.948,-23.329 -79.978,-23.329c-53.029,0 -79.977,23.329 -79.977,23.329l53.318,0l0,93.315l-53.318,0c0,0 26.235,23.329 79.977,23.329c53.743,0 79.978,-23.329 79.978,-23.329Z" style="fill:#626262;"/><path id="U" d="M320.011,0.027c0,0 0.152,139.946 79.977,139.946c79.825,0 79.977,-139.946 79.977,-139.946c0,0 -19.831,93.315 -79.977,93.315c-60.146,0 -79.977,-93.315 -79.977,-93.315Z" style="fill:#626262;"/><path id="Q" d="M282.624,129.24c-12.327,6.806 -26.923,10.745 -42.561,10.745c-44.125,0 -79.948,-31.362 -79.948,-69.992c0,-38.63 35.823,-69.993 79.948,-69.993c44.124,0 79.948,31.363 79.948,69.993c0,14.378 -4.963,27.75 -13.471,38.873l13.471,31.134l-37.387,-10.76Zm-4.54,-48.42c1.267,-3.41 1.953,-7.049 1.953,-10.827c0,-19.315 -17.912,-34.997 -39.974,-34.997c-22.062,0 -39.974,15.682 -39.974,34.997c0,19.315 17.912,34.996 39.974,34.996c5.091,0 9.961,-0.835 14.441,-2.357l-14.471,-32.654l38.051,10.842Z" style="fill:#626262;"/><path id="S" d="M160.056,0.024c0,0 -138.412,-1.368 -157.777,16.733c-19.373,18.1 91.129,88.25 91.129,88.25l-93.307,34.99c0,0 139.348,0.681 157.94,-17.42c18.595,-18.103 -91.292,-87.557 -91.292,-87.557l93.307,-34.996Z" style="fill:#626262;fill-rule:nonzero;"/></g></svg>